<?xml version="1.0" standalone="no"?>
<!DOCTYPE svg PUBLIC "-//W3C//DTD SVG 20010904//EN"
 "http://www.w3.org/TR/2001/REC-SVG-20010904/DTD/svg10.dtd">
<svg version="1.0" xmlns="http://www.w3.org/2000/svg"
 width="280.000000pt" height="280.000000pt" viewBox="0 0 280.000000 280.000000"
 preserveAspectRatio="xMidYMid meet">
<metadata>
Created by potrace 1.11, written by Peter Selinger 2001-2013
</metadata>
<g transform="translate(0.000000,280.000000) scale(0.100000,-0.100000)"
fill="#000000" stroke="none">
<path d="M1235 2794 c-16 -3 -75 -14 -129 -25 -469 -97 -863 -444 -1029 -905
-55 -153 -72 -263 -72 -464 0 -157 3 -201 23 -289 125 -556 539 -965 1102
-1087 133 -29 420 -27 559 4 556 125 965 539 1087 1102 29 133 27 420 -4 559
-122 542 -525 951 -1062 1078 -85 20 -138 25 -275 28 -93 2 -183 1 -200 -1z
m275 -34 c602 -54 1081 -467 1220 -1054 129 -541 -105 -1131 -570 -1441 -409
-272 -934 -304 -1370 -84 -170 85 -299 184 -412 313 -199 229 -311 493 -337
794 -48 544 242 1071 726 1320 204 105 322 136 613 161 8 0 67 -4 130 -9z"/>
<path d="M1295 2739 c-548 -42 -1021 -420 -1179 -940 -75 -248 -77 -540 -4
-784 144 -487 559 -854 1063 -940 189 -32 427 -18 610 37 358 106 661 364 825
703 200 412 170 926 -75 1307 -273 422 -743 656 -1240 617z m853 -291 c176
-129 326 -307 415 -493 28 -56 87 -219 87 -237 0 -23 -36 7 -194 162 -96 94
-178 170 -183 170 -6 0 -18 -9 -28 -20 -10 -11 -21 -20 -24 -20 -3 0 -30 32
-60 70 -29 39 -56 70 -59 70 -3 0 -19 -12 -34 -27 l-28 -27 -42 92 c-23 51
-44 92 -47 92 -3 0 -37 -54 -75 -120 -64 -112 -85 -135 -101 -110 -14 23 -38
5 -100 -77 -69 -91 -81 -101 -128 -102 -18 -1 -43 -16 -73 -43 l-45 -42 -137
137 -137 137 -28 -27 c-17 -18 -30 -24 -35 -17 -22 33 -104 134 -109 134 -2 0
-16 -9 -30 -20 -14 -11 -29 -20 -32 -20 -4 0 -24 38 -46 85 -21 47 -42 85 -46
85 -4 0 -37 -54 -75 -120 -63 -112 -84 -135 -99 -110 -15 25 -45 3 -105 -80
-64 -87 -80 -100 -130 -100 -18 0 -43 -17 -79 -54 -42 -43 -65 -57 -103 -66
-34 -9 -54 -21 -69 -42 -12 -16 -23 -27 -25 -25 -8 8 56 195 90 267 85 176
235 360 396 482 l75 57 693 1 693 0 57 -42z m-1280 -364 c-2 -19 -3 -34 -2
-34 0 0 22 11 47 24 l46 25 -10 -27 c-36 -93 -59 -155 -59 -160 0 -3 21 23 47
57 43 59 48 62 61 45 9 -13 12 -33 7 -66 -3 -27 -4 -48 -1 -48 8 0 49 72 49
86 0 10 4 11 12 4 7 -6 10 -22 8 -38 l-4 -27 30 33 c26 27 32 30 38 16 3 -8
-2 -32 -11 -52 l-18 -37 36 34 c20 19 36 42 36 50 0 9 18 -2 45 -29 25 -24 45
-48 45 -52 0 -4 -24 -24 -52 -44 -55 -37 -37 -38 34 -3 21 11 42 19 49 19 13
0 96 -71 116 -99 11 -17 11 -18 -7 -14 -31 8 -25 -1 36 -53 40 -33 53 -41 44
-24 -11 21 -11 22 6 15 11 -5 30 -9 44 -9 14 -1 38 -9 53 -19 36 -23 34 -15
-7 31 l-35 38 107 90 c93 79 107 94 104 118 -3 24 -1 26 17 17 30 -17 37 -14
51 19 20 49 22 28 3 -40 -15 -56 -23 -67 -70 -102 -29 -22 -53 -42 -53 -44 0
-2 24 6 53 17 28 12 64 26 80 31 16 6 45 35 69 69 22 32 42 59 44 59 2 0 -1
-12 -6 -26 -6 -14 -10 -31 -10 -37 1 -12 79 131 80 146 0 5 -14 -2 -31 -15
-77 -57 -74 -56 -55 -20 16 31 16 32 -4 32 -20 0 -19 3 10 45 36 53 55 50 47
-7 -5 -36 -4 -38 11 -25 16 13 82 48 82 43 0 -1 -16 -41 -35 -89 -19 -48 -35
-90 -35 -94 0 -4 21 21 46 55 25 34 48 62 50 62 12 0 30 -58 23 -75 -4 -11 -8
-28 -8 -39 -1 -28 22 -5 44 44 19 43 40 37 28 -8 -5 -22 -4 -23 15 -13 11 6
24 21 28 33 6 21 7 21 20 3 12 -16 11 -23 -6 -52 -11 -18 -17 -33 -14 -33 10
0 69 74 66 84 -2 6 19 -11 47 -38 l50 -50 -50 -34 c-63 -42 -58 -52 10 -18 28
14 56 26 63 26 8 0 43 -27 78 -60 59 -55 62 -60 35 -54 -28 6 -27 3 25 -44 52
-47 79 -61 50 -27 -15 18 -9 19 24 3 30 -13 32 -18 45 -121 19 -140 10 -302
-25 -459 l-16 -68 -94 0 c-93 0 -95 1 -92 23 2 15 9 21 22 19 10 -2 25 -1 34
3 13 5 12 8 -4 20 -18 14 -18 14 0 15 15 0 16 3 6 15 -6 8 -9 19 -5 25 3 5 2
10 -4 10 -6 0 -8 7 -4 16 3 9 0 20 -8 25 -11 7 -9 9 6 9 15 0 17 2 6 9 -7 5
-10 14 -7 20 4 6 1 14 -7 17 -8 3 -14 13 -12 22 1 9 0 22 -4 27 -3 6 -7 19 -9
30 -1 11 -8 38 -14 60 l-11 40 -23 -84 c-13 -46 -22 -87 -19 -91 2 -3 -6 -12
-18 -20 -20 -12 -21 -12 -7 4 13 16 12 20 -3 31 -9 6 -14 15 -11 18 3 3 2 12
-2 19 -7 11 -12 35 -16 86 -1 6 -5 12 -9 12 -4 0 -11 21 -15 48 l-7 47 -12
-35 c-7 -19 -10 -38 -8 -42 2 -5 0 -8 -5 -8 -5 0 -8 -16 -7 -35 0 -19 -3 -35
-8 -35 -5 0 -7 -7 -3 -15 3 -9 0 -15 -9 -15 -8 0 -15 5 -15 10 0 6 -6 10 -12
10 -16 0 -20 50 -4 50 6 0 2 7 -9 16 -17 13 -18 16 -5 24 11 7 11 10 2 10 -7
0 -10 5 -7 10 3 6 1 10 -5 10 -7 0 -9 8 -5 20 3 11 3 20 -2 20 -5 0 -10 13
-11 29 -1 17 -6 40 -11 53 l-10 23 -2 -22 c-2 -27 -1 -25 -19 -83 -8 -25 -14
-49 -15 -55 0 -5 -4 -16 -8 -22 -5 -8 -3 -13 5 -13 8 0 9 -3 3 -8 -10 -7 -16
-24 -19 -52 -1 -18 -29 -48 -39 -42 -5 2 -6 10 -3 18 3 8 2 14 -2 14 -4 0 -9
8 -10 18 -2 21 -10 57 -12 57 -1 0 -4 13 -6 29 -3 17 -9 37 -14 45 -8 15 -14
-2 -23 -69 -2 -8 -6 -21 -11 -28 -4 -7 -5 -19 -2 -27 3 -8 1 -15 -4 -15 -5 0
-8 -13 -6 -30 2 -16 1 -30 -3 -30 -3 0 -16 -3 -27 -6 -18 -5 -21 -2 -19 18 1
13 -5 48 -14 78 -18 57 -19 57 -37 -15 -4 -16 -9 -36 -11 -42 -1 -7 -5 -21 -7
-30 -3 -10 -5 -19 -6 -20 -2 -2 -4 -7 -5 -13 -1 -5 -4 -11 -5 -12 -1 -2 -4
-16 -6 -32 -2 -16 -9 -33 -16 -38 -10 -6 -10 -10 2 -18 8 -5 10 -10 4 -10 -6
0 -10 -18 -10 -41 0 -41 0 -41 33 -36 30 5 33 3 33 -19 0 -24 -1 -24 -102 -25
-99 -1 -101 -2 -48 -11 31 -5 243 -8 478 -6 314 2 421 0 418 -8 -3 -7 -10 -30
-17 -53 l-12 -41 -61 5 c-34 3 -126 8 -206 10 -80 2 -158 9 -174 14 -15 6 -39
12 -54 13 -15 1 27 5 93 8 l120 6 -150 1 c-82 0 -138 -2 -123 -6 21 -5 25 -9
18 -21 -6 -10 -10 -11 -10 -2 0 6 -12 12 -28 12 -15 0 -34 6 -40 12 -10 10
-15 10 -22 -2 -7 -10 -10 -11 -10 -2 0 17 -16 15 -36 -5 -15 -16 -17 -16 -29
0 -9 13 -21 16 -41 12 -16 -4 -47 -7 -69 -7 -22 0 -46 -5 -53 -11 -8 -6 -32
-6 -72 2 -52 10 -63 10 -85 -5 -35 -23 -40 -13 -16 31 l20 38 -42 38 c-23 21
-50 41 -59 44 -27 10 -25 127 2 162 29 37 25 49 -29 90 -41 30 -48 40 -40 54
12 23 12 25 -7 43 -17 17 -84 22 -84 7 0 -6 4 -12 9 -15 5 -3 9 -17 9 -31 0
-14 6 -33 15 -43 12 -13 13 -22 5 -37 -16 -30 -16 -30 -38 -10 -15 13 -24 15
-31 8 -8 -8 1 -26 29 -62 l41 -51 -24 -53 c-13 -28 -26 -76 -30 -105 -6 -46
-10 -53 -33 -58 -15 -4 -33 -11 -40 -17 -6 -5 -25 -7 -41 -4 -19 4 -33 1 -42
-9 -10 -12 -14 -12 -26 6 -14 19 -17 20 -38 6 -18 -12 -31 -13 -57 -6 -22 7
-34 7 -36 0 -3 -8 -8 -7 -17 0 -7 6 -16 7 -18 2 -3 -4 -108 -7 -234 -6 -137 1
-198 -1 -153 -6 41 -3 63 -7 48 -8 -16 -1 -28 -8 -28 -14 0 -10 -3 -9 -9 1 -5
8 -14 10 -22 5 -15 -9 -42 -11 -220 -20 l-126 -6 -17 48 c-9 26 -16 48 -16 48
0 1 177 0 392 -2 216 -2 431 1 478 6 l85 9 -102 2 -103 1 0 25 c0 22 3 25 24
19 35 -8 52 4 29 22 -17 13 -17 13 1 14 15 0 16 3 6 15 -6 8 -9 19 -5 25 3 5
2 10 -4 10 -6 0 -8 7 -4 16 3 9 0 20 -8 25 -8 5 -9 9 -3 9 7 0 9 11 6 25 -2
14 -8 25 -12 25 -5 0 -7 8 -5 18 1 9 0 22 -4 27 -3 6 -7 19 -9 30 -1 11 -8 38
-14 60 l-11 40 -23 -84 c-13 -46 -22 -87 -19 -91 2 -3 -6 -12 -18 -20 -20 -12
-21 -12 -7 4 13 16 12 20 -3 31 -9 6 -14 15 -11 18 3 3 2 12 -2 19 -7 11 -12
35 -16 86 -1 6 -5 12 -9 12 -4 0 -11 21 -15 48 l-7 47 -12 -35 c-7 -19 -10
-38 -8 -42 2 -5 0 -8 -5 -8 -5 0 -8 -16 -7 -35 0 -22 -5 -37 -14 -40 -14 -5
-14 -7 -1 -15 13 -8 12 -10 -2 -10 -10 0 -18 5 -18 10 0 6 -6 10 -12 10 -16 0
-20 50 -4 50 6 0 2 7 -9 16 -17 13 -18 16 -5 24 11 7 11 10 2 10 -7 0 -10 5
-7 10 3 6 1 10 -5 10 -7 0 -9 8 -5 20 3 11 3 20 -2 20 -5 0 -10 10 -11 23 -1
12 -6 36 -11 52 -8 26 -10 27 -11 8 -3 -27 -2 -25 -20 -83 -8 -25 -14 -49 -15
-55 0 -5 -4 -16 -8 -22 -5 -8 -3 -13 5 -13 8 0 9 -3 3 -8 -10 -7 -16 -24 -19
-52 -1 -18 -29 -48 -39 -42 -5 2 -6 10 -3 18 3 8 2 14 -2 14 -4 0 -9 8 -10 18
-4 34 -8 52 -15 58 -4 4 -7 19 -7 33 0 14 -4 32 -9 40 -9 14 -15 -2 -24 -69
-2 -8 -6 -21 -11 -28 -4 -7 -5 -19 -2 -27 3 -8 1 -15 -4 -15 -5 0 -8 -13 -6
-30 2 -16 1 -30 -3 -30 -3 0 -16 -3 -27 -6 -18 -5 -21 -2 -19 20 2 14 -1 28
-6 32 -5 3 -7 9 -5 13 3 4 -1 25 -8 46 -14 40 -14 41 -32 -30 -4 -16 -9 -34
-10 -40 -2 -5 -5 -19 -8 -30 -2 -11 -5 -21 -6 -22 -2 -2 -4 -7 -5 -13 -1 -5
-4 -11 -5 -12 -1 -2 -4 -16 -6 -32 -2 -16 -9 -33 -16 -38 -10 -6 -10 -10 2
-18 12 -7 12 -10 1 -10 -7 0 -11 -6 -7 -15 3 -8 0 -15 -7 -15 -8 0 -7 -4 3
-10 13 -9 13 -11 0 -19 -12 -9 -12 -11 3 -17 9 -3 28 -3 42 0 22 6 25 3 25
-19 0 -25 0 -25 -94 -25 l-94 0 -11 46 c-38 149 -50 338 -31 484 9 63 14 78
37 96 28 22 28 22 31 2 3 -17 8 -14 33 21 17 22 38 42 47 45 9 2 28 8 41 11
24 7 23 6 -10 -36 l-34 -44 30 22 c53 39 151 134 125 122 l-25 -11 20 20 c11
12 39 25 62 30 l43 10 -19 -27 c-11 -14 -31 -37 -46 -51 -68 -63 -38 -55 41
10 149 124 154 129 143 157 -8 22 -7 24 8 18 43 -17 49 -16 66 17 10 18 16 26
14 18 -2 -8 -10 -39 -18 -69 -12 -47 -20 -59 -66 -93 -29 -21 -53 -41 -53 -43
0 -4 52 15 133 48 21 9 45 33 66 66 37 57 46 63 37 26 -4 -14 -4 -25 -1 -25 7
0 77 141 72 146 -3 3 -17 -6 -33 -18 -72 -58 -69 -57 -50 -20 16 31 16 32 -4
32 -20 0 -19 3 10 45 35 51 54 50 48 -1z m723 -300 c-28 -30 -49 -59 -47 -63
8 -13 -33 -10 -44 3 -8 10 -2 21 25 44 39 35 45 48 15 32 -29 -15 -25 -4 5 16
24 16 86 34 94 28 2 -2 -19 -29 -48 -60z m-861 -483 c0 -5 -9 -7 -20 -4 -11 3
-20 7 -20 9 0 2 9 4 20 4 11 0 20 -4 20 -9z m1535 -1 c7 -12 -2 -12 -30 0 -19
8 -19 9 2 9 12 1 25 -3 28 -9z m-1700 -20 c3 -5 2 -10 -4 -10 -5 0 -13 5 -16
10 -3 6 -2 10 4 10 5 0 13 -4 16 -10z m1530 0 c3 -5 2 -10 -4 -10 -5 0 -13 5
-16 10 -3 6 -2 10 4 10 5 0 13 -4 16 -10z m-1670 -20 c3 -6 -1 -7 -9 -4 -18 7
-21 14 -7 14 6 0 13 -4 16 -10z m1530 0 c3 -6 -1 -7 -9 -4 -18 7 -21 14 -7 14
6 0 13 -4 16 -10z m-557 -164 c6 -13 35 -37 64 -53 47 -25 53 -32 51 -58 -1
-15 -10 -36 -19 -44 -15 -14 -16 -14 -12 -1 8 21 -28 24 -36 3 -6 -14 -8 -14
-19 1 -14 19 -87 40 -87 25 0 -5 -4 -9 -10 -9 -15 0 -12 39 7 90 27 75 42 86
61 46z m-998 -26 c13 -7 27 -6 44 2 31 14 40 7 31 -22 -6 -18 -13 -21 -53 -18
-40 3 -47 6 -50 26 -4 25 1 27 28 12z m218 -14 c-3 -18 -11 -21 -60 -24 -55
-3 -58 -2 -58 20 0 22 4 24 61 24 56 1 60 0 57 -20z m97 12 c6 0 18 3 28 7 16
7 18 4 15 -16 -3 -22 -8 -24 -53 -24 -45 0 -50 2 -53 24 -3 21 -1 23 25 17 15
-4 33 -7 38 -8z m179 -7 c-1 -6 -2 -15 -2 -21 -1 -5 -24 -10 -51 -10 -40 0
-50 4 -54 19 -3 11 -3 21 -2 23 9 9 110 -1 109 -11z m1036 9 c13 -7 27 -6 44
2 31 14 40 7 31 -22 -6 -18 -13 -21 -53 -18 -40 3 -47 6 -50 26 -4 25 1 27 28
12z m218 -14 c-3 -18 -10 -21 -58 -21 -48 0 -55 3 -58 20 -3 19 3 21 58 21 57
1 61 0 58 -20z m97 12 c6 0 18 3 28 7 14 6 17 2 17 -19 0 -26 -2 -27 -52 -24
-47 3 -53 6 -56 27 -3 21 -1 23 25 17 15 -4 33 -7 38 -8z m179 -7 c-1 -6 -2
-15 -2 -21 -1 -5 -24 -10 -51 -10 -40 0 -50 4 -54 19 -3 11 -3 21 -2 23 9 9
110 -1 109 -11z m-1718 -115 c-30 -14 -66 -11 -66 5 0 5 21 9 48 8 47 -1 47
-1 18 -13z m-106 -276 l0 -110 -25 0 -25 0 0 110 0 110 25 0 25 0 0 -110z
m286 85 c19 -26 17 -52 -6 -75 -11 -11 -15 -22 -9 -25 9 -6 49 -78 49 -90 0
-3 -12 -5 -27 -5 -22 0 -32 8 -48 38 -12 23 -29 38 -42 40 -21 3 -23 -1 -23
-37 0 -37 -2 -41 -25 -41 l-25 0 0 111 0 111 71 -4 c55 -3 74 -8 85 -23z m114
-39 c0 -89 12 -118 48 -114 27 3 27 3 30 91 l3 87 29 0 30 0 0 -84 c0 -95 -17
-129 -70 -141 -38 -8 -97 11 -110 35 -6 10 -10 57 -10 104 0 85 0 86 25 86 24
0 25 -2 25 -64z m277 -7 l38 -71 3 72 c3 71 3 71 30 68 l27 -3 3 -107 3 -108
-35 0 c-33 0 -38 4 -76 73 l-40 72 0 -72 c0 -71 -1 -73 -25 -73 l-25 0 0 110
0 110 29 0 c26 0 34 -8 68 -71z m383 52 c0 -17 -8 -20 -47 -23 -40 -3 -48 -6
-48 -23 0 -16 8 -21 43 -23 34 -3 42 -7 42 -23 0 -16 -7 -19 -45 -19 -41 0
-45 -2 -45 -25 0 -23 3 -25 50 -25 43 0 50 -3 50 -20 0 -18 -7 -20 -80 -20
l-80 0 0 103 c0 57 3 107 7 110 3 4 39 7 80 7 66 0 73 -2 73 -19z m178 -8 c5
-16 24 -65 41 -110 l30 -83 -29 0 c-20 0 -31 6 -35 20 -5 16 -15 20 -52 20
-36 0 -46 -4 -50 -20 -4 -14 -14 -20 -34 -20 -16 0 -29 2 -29 4 0 2 16 46 35
98 20 51 38 99 40 106 2 6 20 12 39 12 28 0 36 -5 44 -27z m240 1 c3 -20 -1
-21 -47 -16 -46 4 -51 3 -51 -16 0 -15 10 -22 44 -31 52 -13 76 -33 76 -64 0
-59 -61 -88 -138 -67 -32 8 -42 16 -42 31 0 18 4 19 38 13 40 -8 71 -8 79 0
14 13 -10 36 -47 46 -48 13 -74 46 -64 84 9 36 30 46 94 43 47 -2 55 -5 58
-23z m101 -15 l24 -41 26 41 c20 32 32 41 54 41 15 0 27 -2 27 -5 0 -3 -18
-34 -40 -69 -30 -47 -40 -73 -40 -105 0 -37 -2 -41 -25 -41 -23 0 -25 4 -25
43 0 34 -9 56 -45 110 l-45 67 33 0 c29 0 37 -6 56 -41z m81 -239 c0 -14
-1716 -14 -1725 0 -4 7 285 10 859 10 571 0 866 -3 866 -10z m-522 -107 c-185
-2 -491 -2 -680 0 -189 1 -37 2 337 2 374 0 528 -1 343 -2z m-105 -110 c-128
-2 -338 -2 -465 0 -128 1 -24 2 232 2 256 0 360 -1 233 -2z m37 -103 c0 -6
-98 -10 -275 -10 -177 0 -275 4 -275 10 0 6 98 10 275 10 177 0 275 -4 275
-10z"/>
<path d="M482 993 c82 -2 214 -2 295 0 82 1 15 3 -147 3 -162 0 -229 -2 -148
-3z"/>
<path d="M2012 993 c82 -2 214 -2 295 0 82 1 15 3 -147 3 -162 0 -229 -2 -148
-3z"/>
<path d="M780 709 c0 -27 3 -30 27 -27 49 5 40 57 -9 58 -13 0 -18 -8 -18 -31z"/>
<path d="M1781 690 c-15 -46 -14 -50 14 -50 29 0 30 6 11 50 l-13 32 -12 -32z"/>
</g>
</svg>
